<svg width="13" height="17" viewBox="0 0 13 17" fill="none" xmlns="http://www.w3.org/2000/svg">
<path d="M3.987 1.066C4.42458 0.934067 4.89415 0.955986 5.31754 1.12811C5.74093 1.30023 6.0926 1.61217 6.314 2.012L6.388 2.161L7.05 3.632C7.25091 4.07848 7.31612 4.57418 7.23754 5.05744C7.15895 5.54069 6.94003 5.99018 6.608 6.35L6.475 6.482L5.432 7.455C5.244 7.633 5.385 8.322 6.065 9.5C6.677 10.56 7.175 11.055 7.42 11.082H7.463L7.516 11.072L9.566 10.445C9.84151 10.3605 10.1355 10.3572 10.4129 10.4354C10.6903 10.5136 10.9392 10.67 11.13 10.886L11.221 11.001L12.578 12.881C12.8439 13.2495 12.9765 13.6976 12.9538 14.1514C12.931 14.6053 12.7544 15.0379 12.453 15.378L12.331 15.504L11.789 16.018C11.3023 16.4789 10.6935 16.7904 10.0349 16.9154C9.37633 17.0403 8.69573 16.9736 8.074 16.723C6.139 15.943 4.381 14.161 2.784 11.395C1.184 8.622 0.519 6.205 0.816 4.135C0.905874 3.50927 1.16354 2.91956 1.56164 2.4285C1.95973 1.93744 2.48339 1.56336 3.077 1.346L3.27 1.282L3.987 1.066V1.066Z" fill="black"/>
</svg>
